# xmcd CD database file
#
# Track frame offsets:
#	150
#	14036
#	30587
#	42809
#	60226
#
# Disc length: 966 seconds
#
# Revision: 0
# Processed by: cddbd v1.5.2PL0 Copyright (c) Steve Scherf et al.
# Submitted via: CDex 1.70beta2
#
DISCID=3403c405
DTITLE=Barcelona Big Blues Band and Myriam Swanson - -
DYEAR=1900
DGENRE=Jazz
TTITLE0=Down Boy Down
TTITLE1=That's Why I Cry
TTITLE2='Til The Well Runs Dry
TTITLE3=St. James Infirmary
TTITLE4=Leave My Kitten Alone
EXTD=
EXTT0=
EXTT1=
EXTT2=
EXTT3=
EXTT4=
PLAYORDER=
